<?xml version="1.0" encoding="UTF-8" standalone="no"?>
<svg
   xmlns:dc="http://purl.org/dc/elements/1.1/"
   xmlns:cc="http://creativecommons.org/ns#"
   xmlns:rdf="http://www.w3.org/1999/02/22-rdf-syntax-ns#"
   xmlns:svg="http://www.w3.org/2000/svg"
   xmlns="http://www.w3.org/2000/svg"
   viewBox="0 0 3408 1349.3333"
   height="1349.3333"
   width="3408"
   xml:space="preserve"
   id="svg2"
   version="1.1"><metadata
     id="metadata8"><rdf:RDF><cc:Work
         rdf:about=""><dc:format>image/svg+xml</dc:format><dc:type
           rdf:resource="http://purl.org/dc/dcmitype/StillImage" /></cc:Work></rdf:RDF></metadata><defs
     id="defs6"><clipPath
       id="clipPath18"
       clipPathUnits="userSpaceOnUse"><path
         id="path16"
         d="M 0,1012 H 2556 V 0 H 0 Z" /></clipPath></defs><g
     transform="matrix(1.3333333,0,0,-1.3333333,0,1349.3333)"
     id="g10"><g
       id="g12"><g
         clip-path="url(#clipPath18)"
         id="g14"><g
           transform="translate(427.8832,392.8257)"
           id="g20"><path
             id="path22"
             style="fill:#171717;fill-opacity:1;fill-rule:evenodd;stroke:none"
             d="M 0,0 V 56.057 L -152.254,71.821 V 25.67 Z m 0,138.851 v -50.89 l -152.254,4.85 v 43.634 z m 0,31.92 v 60.421 l -152.254,-27.889 v -45.764 z m 0,138.403 v -45.89 l -152.254,-38.803 v 48.107 h -21.001 V 219.129 L -280.883,191.7 v 49.528 h -21 v -54.88 -10.454 -31.36 -10.453 -143.733 h 21 V 35.575 L -173.255,9.653 v -50.665 h 21.001 V 4.594 L 0,-32.077 v -50.749 h 31.501 v 392 z M -280.883,146.359 v 33.382 l 107.628,19.715 v -43.742 z m 107.628,-10.246 V 93.48 l -107.628,3.429 v 37.504 z M -280.883,85.138 -173.255,73.995 V 29.21 l -107.628,18.146 z m 1880.19,-55.32 21.49,-37.064 v -20.52 h 3.973 v 20.52 l 21.49,37.064 h -4.784 l -18.591,-32.576 -18.712,32.576 z m -99.114,0 h 37.708 v -3.812 h -16.948 v -53.772 h -3.974 v 53.772 h -16.786 z m -119.37,-18.167 c -1.513,-3.515 -2.27,-7.3 -2.27,-11.355 0,-4.217 0.757,-8.11 2.27,-11.679 1.514,-3.568 3.623,-6.677 6.326,-9.327 2.703,-2.649 5.811,-4.704 9.325,-6.163 3.568,-1.46 7.38,-2.19 11.434,-2.19 4.055,0 7.867,0.757 11.435,2.271 3.568,1.514 6.703,3.622 9.407,6.326 2.703,2.703 4.811,5.812 6.325,9.327 1.568,3.568 2.352,7.38 2.352,11.435 0,4.055 -0.784,7.84 -2.352,11.355 -1.514,3.568 -3.622,6.704 -6.325,9.408 -2.704,2.757 -5.839,4.893 -9.407,6.407 -3.568,1.568 -7.38,2.352 -11.435,2.352 -4.054,0 -7.866,-0.784 -11.434,-2.352 -3.514,-1.514 -6.622,-3.65 -9.325,-6.407 -2.703,-2.704 -4.812,-5.84 -6.326,-9.408 m 3.731,-21.33 c -1.298,3.081 -1.947,6.38 -1.947,9.894 0,3.461 0.622,6.732 1.866,9.814 1.297,3.136 3.081,5.893 5.352,8.272 2.324,2.379 5.028,4.245 8.109,5.596 3.082,1.406 6.406,2.109 9.974,2.109 3.515,0 6.812,-0.676 9.894,-2.028 3.082,-1.351 5.785,-3.217 8.109,-5.596 2.325,-2.325 4.136,-5.055 5.434,-8.191 1.351,-3.082 2.027,-6.38 2.027,-9.895 0,-3.568 -0.676,-6.894 -2.027,-9.975 -1.298,-3.082 -3.109,-5.786 -5.434,-8.111 -2.324,-2.325 -5.027,-4.163 -8.109,-5.515 -3.082,-1.297 -6.406,-1.946 -9.975,-1.946 -3.46,0 -6.73,0.649 -9.812,1.946 -3.027,1.352 -5.703,3.19 -8.028,5.515 -2.325,2.325 -4.136,5.029 -5.433,8.111 m -100.61,39.497 h 3.973 v -53.772 h 31.546 v -3.812 h -35.519 z m -76.489,-1.865 c -2.649,1.243 -5.758,1.865 -9.326,1.865 h -13.299 v -57.584 h 3.973 v 24.169 h 8.92 c 3.244,0 6.001,0.487 8.272,1.46 2.325,0.973 4.217,2.271 5.677,3.893 1.513,1.622 2.595,3.434 3.243,5.434 0.703,2.055 1.054,4.163 1.054,6.326 0,3.623 -0.756,6.624 -2.27,9.003 -1.46,2.433 -3.541,4.244 -6.244,5.434 m -2.757,-26.44 c -1.839,-0.865 -4.163,-1.298 -6.975,-1.298 h -8.92 v 25.791 h 9.731 c 2.163,0 4.082,-0.324 5.758,-0.973 1.676,-0.595 3.082,-1.46 4.217,-2.596 1.189,-1.081 2.081,-2.379 2.676,-3.892 0.595,-1.514 0.892,-3.191 0.892,-5.029 0,-1.298 -0.243,-2.703 -0.73,-4.217 -0.432,-1.514 -1.189,-2.974 -2.27,-4.38 -1.028,-1.352 -2.487,-2.487 -4.379,-3.406 m -186.56,27.71 h 35.518 v -3.812 h -31.545 V 2.54 h 28.383 v -3.812 h -28.383 v -23.276 h 32.681 v -3.812 h -36.654 z m 27.004,14.112 -8.596,-10.787 h -2.757 l 7.055,10.787 z m -119.438,-68.993 -20.079,50.97 h -4.622 l 24.49,-60.26 24.49,60.26 h -4.541 z M 774.857,0.296 c 0,4.055 0.757,7.84 2.271,11.355 1.514,3.568 3.622,6.704 6.325,9.408 2.703,2.757 5.812,4.893 9.326,6.407 3.568,1.568 7.379,2.352 11.434,2.352 4.055,0 7.866,-0.784 11.434,-2.352 3.568,-1.514 6.704,-3.65 9.407,-6.407 2.703,-2.704 4.812,-5.84 6.325,-9.408 1.568,-3.515 2.352,-7.3 2.352,-11.355 0,-4.055 -0.784,-7.867 -2.352,-11.435 -1.513,-3.515 -3.622,-6.624 -6.325,-9.327 -2.703,-2.704 -5.839,-4.812 -9.407,-6.326 -3.568,-1.514 -7.379,-2.271 -11.434,-2.271 -4.055,0 -7.866,0.73 -11.434,2.19 -3.514,1.459 -6.623,3.514 -9.326,6.163 -2.703,2.65 -4.811,5.759 -6.325,9.327 -1.514,3.569 -2.271,7.462 -2.271,11.679 m 4.055,-0.081 c 0,-3.514 0.649,-6.813 1.946,-9.894 1.298,-3.082 3.109,-5.786 5.433,-8.111 2.325,-2.325 5.001,-4.163 8.029,-5.515 3.081,-1.297 6.352,-1.946 9.812,-1.946 3.568,0 6.893,0.649 9.975,1.946 3.081,1.352 5.784,3.19 8.109,5.515 2.324,2.325 4.136,5.029 5.433,8.111 1.352,3.081 2.027,6.407 2.027,9.975 0,3.515 -0.675,6.813 -2.027,9.895 -1.297,3.136 -3.109,5.866 -5.433,8.191 -2.325,2.379 -5.028,4.245 -8.109,5.596 -3.082,1.352 -6.38,2.028 -9.894,2.028 -3.568,0 -6.893,-0.703 -9.974,-2.109 -3.082,-1.351 -5.785,-3.217 -8.11,-5.596 -2.27,-2.379 -4.054,-5.136 -5.352,-8.272 -1.243,-3.082 -1.865,-6.353 -1.865,-9.814 m -99.276,0.811 0.162,2.839 v 25.953 h -4.055 v -57.584 h 4.055 l -0.081,24.818 6.974,6.651 24.409,-31.469 h 5.028 L 689.61,6.217 713.451,29.818 h -5.108 L 679.879,1.756 Z M 603.66,29.223 h 3.974 V -28.36 h -3.974 z m 12.002,14.112 -8.596,-10.787 h -2.757 l 7.055,10.787 z M 485.835,19.624 530.189,-30.361 h 0.163 v 58.962 h -3.812 l 0.079,-49.165 -44.356,50.382 h -0.243 v -58.8 h 3.892 z m -80.403,10.194 h 3.974 v -57.583 h -3.974 z m -86.131,0 h -3.973 v -57.584 h 35.519 v 3.812 h -31.546 z m -82.958,0 v -57.584 h -3.974 v 27.089 h -34.708 v -27.089 h -3.973 v 57.584 h 3.973 V 3.054 h 34.708 v 26.764 z m 1736.032,65.738 h 29.742 v 149.068 c 0,2.059 -0.381,4.004 -1.144,5.835 -0.763,1.83 -1.83,3.432 -3.203,4.805 -1.373,1.373 -2.974,2.44 -4.804,3.203 -1.831,0.763 -3.775,1.144 -5.834,1.144 h -67.033 c -11.82,0 -22.725,-2.021 -32.715,-6.063 -9.99,-4.043 -18.645,-9.687 -25.966,-16.932 -7.321,-7.246 -13.041,-15.902 -17.159,-25.97 -4.118,-10.067 -6.177,-21.088 -6.177,-33.062 V 95.556 h 29.741 v 40.27 h 104.552 z m 0,70.015 h -104.552 v 12.013 c 0,8.313 1.144,15.368 3.432,21.164 2.364,5.873 5.338,10.754 8.922,14.644 3.585,3.89 7.512,6.94 11.783,9.152 4.27,2.212 8.312,3.852 12.125,4.92 3.889,1.067 7.283,1.716 10.181,1.944 2.974,0.306 4.918,0.458 5.833,0.458 h 52.276 z M 1800.8,229.866 h -65.545 V 95.556 h -29.742 v 134.31 h -65.659 v 29.745 H 1800.8 Z M 1604.287,104.548 c 0.839,1.831 1.259,3.814 1.259,5.949 v 151.357 h -29.742 V 146.306 l -108.67,113.374 c -2.135,2.212 -4.69,3.585 -7.664,4.118 -2.974,0.611 -5.872,0.344 -8.693,-0.8 -2.67,-1.221 -4.881,-3.089 -6.635,-5.606 -1.678,-2.441 -2.517,-5.186 -2.517,-8.237 V 97.799 h 29.742 v 115.547 l 108.67,-113.488 c 1.449,-1.525 3.088,-2.631 4.919,-3.318 1.906,-0.686 3.774,-1.029 5.605,-1.029 2.059,0 4.003,0.381 5.834,1.144 1.83,0.762 3.393,1.792 4.689,3.088 1.373,1.373 2.441,2.975 3.203,4.805 m -219.381,-8.992 h -29.741 v 40.27 h -104.553 v -40.27 h -29.741 v 82.028 c 0,11.974 2.059,22.995 6.177,33.062 4.118,10.068 9.838,18.724 17.159,25.97 7.321,7.245 15.976,12.889 25.966,16.932 9.99,4.042 20.895,6.063 32.715,6.063 h 67.033 c 2.059,0 4.003,-0.381 5.834,-1.144 1.83,-0.763 3.431,-1.83 4.804,-3.203 1.373,-1.373 2.44,-2.975 3.203,-4.805 0.762,-1.831 1.144,-3.776 1.144,-5.835 z m -29.741,70.015 v 64.295 h -52.277 c -0.915,0 -2.859,-0.152 -5.833,-0.458 -2.898,-0.228 -6.292,-0.877 -10.181,-1.944 -3.813,-1.068 -7.855,-2.708 -12.125,-4.92 -4.271,-2.212 -8.198,-5.262 -11.782,-9.152 -3.585,-3.89 -6.559,-8.771 -8.923,-14.644 -2.288,-5.796 -3.432,-12.851 -3.432,-21.164 v -12.013 z m -237.121,64.295 h 65.545 v 29.745 h -160.946 v -29.745 h 65.659 V 95.556 h 29.742 z M 988.335,148.34 c 0,-5.873 -0.763,-11.173 -2.288,-15.902 -1.449,-4.652 -3.394,-8.771 -5.834,-12.356 -2.44,-3.584 -5.3,-6.635 -8.579,-9.152 -3.279,-2.517 -6.673,-4.576 -10.181,-6.178 -3.508,-1.601 -7.092,-2.783 -10.752,-3.546 -3.585,-0.763 -6.978,-1.144 -10.181,-1.144 H 825.787 v 29.745 H 940.52 c 5.719,0 10.142,1.678 13.269,5.034 3.203,3.355 4.804,7.855 4.804,13.499 0,2.746 -0.419,5.263 -1.258,7.551 -0.839,2.288 -2.059,4.271 -3.66,5.949 -1.526,1.678 -3.432,2.974 -5.72,3.89 -2.211,0.915 -4.69,1.372 -7.435,1.372 h -68.405 c -4.805,0 -9.99,0.839 -15.557,2.517 -5.567,1.754 -10.753,4.538 -15.557,8.352 -4.728,3.813 -8.694,8.809 -11.897,14.987 -3.126,6.177 -4.69,13.728 -4.69,22.652 0,8.923 1.564,16.436 4.69,22.537 3.203,6.178 7.169,11.174 11.897,14.987 4.804,3.89 9.99,6.674 15.557,8.352 5.567,1.754 10.752,2.631 15.557,2.631 H 973.35 V 234.372 H 872.115 c -5.643,0 -10.066,-1.716 -13.269,-5.148 -3.127,-3.432 -4.69,-7.971 -4.69,-13.614 0,-5.721 1.563,-10.259 4.69,-13.614 3.203,-3.28 7.626,-4.92 13.269,-4.92 h 68.634 c 3.202,-0.076 6.596,-0.534 10.18,-1.373 3.584,-0.762 7.131,-1.983 10.638,-3.661 3.585,-1.677 6.978,-3.813 10.181,-6.406 3.203,-2.517 6.025,-5.568 8.465,-9.152 2.517,-3.585 4.499,-7.704 5.948,-12.356 1.449,-4.652 2.174,-9.915 2.174,-15.788 M 784.343,104.548 c 0.839,1.831 1.258,3.814 1.258,5.949 V 261.854 H 755.86 V 146.306 L 647.19,259.68 c -2.136,2.212 -4.69,3.585 -7.664,4.118 -2.975,0.611 -5.872,0.344 -8.694,-0.8 -2.669,-1.221 -4.881,-3.089 -6.635,-5.606 -1.677,-2.441 -2.516,-5.186 -2.516,-8.237 V 97.799 h 29.741 V 213.346 L 760.092,99.858 c 1.449,-1.525 3.089,-2.631 4.919,-3.318 1.906,-0.686 3.775,-1.029 5.605,-1.029 2.059,0 4.004,0.381 5.834,1.144 1.83,0.762 3.393,1.792 4.69,3.088 1.373,1.373 2.44,2.975 3.203,4.805 m -206.113,59.58 c 0,-9.991 -1.716,-19.182 -5.147,-27.571 -3.432,-8.39 -8.198,-15.636 -14.299,-21.737 -6.101,-6.102 -13.345,-10.868 -21.734,-14.301 -8.312,-3.355 -17.387,-5.033 -27.225,-5.033 H 469.56 c -9.837,0 -18.95,1.678 -27.339,5.033 -8.388,3.433 -15.633,8.199 -21.734,14.301 -6.101,6.101 -10.905,13.347 -14.413,21.737 -3.432,8.389 -5.148,17.58 -5.148,27.571 v 31.347 c 0,9.915 1.716,19.067 5.148,27.456 3.508,8.466 8.312,15.712 14.413,21.737 6.101,6.102 13.346,10.868 21.734,14.301 8.389,3.432 17.502,5.148 27.339,5.148 h 40.265 c 9.838,0 18.913,-1.716 27.225,-5.148 8.389,-3.433 15.633,-8.199 21.734,-14.301 6.101,-6.025 10.867,-13.271 14.299,-21.737 3.431,-8.389 5.147,-17.541 5.147,-27.456 z m -29.741,31.347 c 0,5.872 -0.953,11.173 -2.86,15.902 -1.83,4.805 -4.461,8.885 -7.893,12.241 -3.355,3.432 -7.435,6.063 -12.239,7.894 -4.728,1.906 -9.952,2.86 -15.672,2.86 H 469.56 c -5.796,0 -11.096,-0.954 -15.9,-2.86 -4.728,-1.831 -8.808,-4.462 -12.24,-7.894 -3.431,-3.356 -6.1,-7.436 -8.007,-12.241 -1.83,-4.729 -2.745,-10.03 -2.745,-15.902 v -31.347 c 0,-5.873 0.915,-11.212 2.745,-16.017 1.907,-4.728 4.576,-8.809 8.007,-12.241 3.432,-3.356 7.512,-5.987 12.24,-7.894 4.804,-1.83 10.104,-2.745 15.9,-2.745 h 40.037 c 5.795,0 11.057,0.915 15.785,2.745 4.805,1.907 8.923,4.538 12.354,7.894 3.432,3.432 6.063,7.513 7.893,12.241 1.907,4.805 2.86,10.144 2.86,16.017 z M 323.177,95.556 h 42.209 l -84.305,82.028 84.305,82.027 H 323.177 L 256.259,192.57 h -20.933 v -29.973 h 20.933 z m -129.489,0 h 29.741 v 164.055 h -29.741 z" /></g></g></g></g></svg>